<svg id="Layer_2" xmlns="http://www.w3.org/2000/svg" viewBox="0 0 1226.05 543.08"><g id="Layer_1-2"><g><path d="m358.01,494.1c.12-3.96,3.85-7.23,8.16-7.23s8.16,3.15,8.16,7.23v41.16c0,4.08-3.73,7.23-8.16,7.23s-8.05-3.27-8.16-7.23v-1.05c-3.5,5.71-10.14,8.75-16.33,8.75-13.88,0-26.47-10.26-26.47-28.34s12.59-28.22,26.47-28.22c3.5,0,11.66,1.52,16.33,8.75v-1.05Zm-13.18,34.4c7.35,0,13.29-6.53,13.29-13.76s-5.95-13.76-13.29-13.76c-8.16,0-12.83,6.53-12.83,13.76s4.66,13.76,12.83,13.76Z" fill="#ffffff"/><path d="m415.38,487.46c3.26,0,5.83,2.92,5.83,6.41s-2.57,6.3-5.83,6.41h-5.6v34.98c0,4.08-3.73,7.23-8.16,7.23s-8.05-3.27-8.16-7.23v-34.98h-5.13c-3.27-.12-5.83-3.03-5.83-6.41s2.57-6.41,5.83-6.41h5.13v-3.73c0-16.68,8.28-25.89,23.9-25.89h1.4c4.2,0,7.46,3.38,7.46,7.46s-3.38,7.35-7.46,7.46h-1.4c-5.6,0-7.58,3.96-7.58,10.38v4.31h5.6Z" fill="#ffffff"/><path d="m434.04,487.46v-14.23c.12-3.96,3.85-7.23,8.16-7.23s8.16,3.15,8.16,7.23v14.23h6.18c3.26,0,5.83,2.92,5.83,6.41s-2.57,6.3-5.83,6.41h-6.18v34.98c0,4.08-3.73,7.23-8.16,7.23s-8.05-3.27-8.16-7.23v-34.98h-4.43c-3.26-.12-5.83-3.03-5.83-6.41s2.57-6.41,5.83-6.41h4.43Z" fill="#ffffff"/><path d="m514.03,538.06c-5.48,3.61-12.36,4.9-18.77,4.9-15.63,0-28.45-11.31-28.45-28.45s12.83-28.1,28.45-28.1,27.87,11.43,27.87,28.57c0,2.92-2.45,5.01-5.01,5.01h-35.1c.82,6.3,7.7,8.98,13.41,8.98,3.26,0,6.06-.23,9.45-2.57,3.73-2.57,7.93-1.87,10.26.82,3.03,3.5,1.87,8.51-2.1,10.84Zm-7.23-28.22c-.82-6.65-5.36-9.91-11.43-9.91s-10.73,3.03-12.13,9.91h23.55Z" fill="#ffffff"/><path d="m573.62,495.39c-.58,4.08-4.43,5.95-8.05,5.95-1.17,0-2.92-.12-3.96-.12-9.1,0-12.13,7-12.36,20.64v13.41c0,4.08-3.73,7.23-8.16,7.23s-8.05-3.27-8.16-7.23v-41.16c.12-3.96,3.85-7.23,8.16-7.23s8.16,3.15,8.16,7.23v5.95c3.03-10.14,8.75-13.64,14.34-13.64s11.08,1.28,10.03,8.98Z" fill="#ffffff"/><path d="m581.54,523.25c3.61-1.63,7-.12,8.75,1.98,2.92,3.15,6.41,4.78,10.26,4.78,3.61,0,7-.58,7-3.38,0-2.33-1.4-3.15-5.36-4.43l-6.18-2.22c-16.33-5.48-16.21-13.18-16.21-18.19,0-8.05,9.68-15.51,21.11-15.51,7.81,0,15.86,2.45,19.59,8.98,1.98,3.5,1.05,6.88-1.4,8.28-3.61,2.1-7,1.28-10.38-1.28-2.33-1.75-4.43-2.45-6.53-2.45-3.5,0-5.95,1.17-5.95,3.26,0,1.75,1.4,2.8,4.66,3.85l8.28,2.8c13.18,4.31,14.81,12.83,14.81,16.32,0,11.54-12.13,17.02-23.55,17.02-8.75,0-19.01-3.61-21.81-11.66-1.17-3.38.23-7,2.92-8.16Z" fill="#ffffff"/><path d="m661.88,527.22c2.92,0,5.71-.82,8.05-2.1,2.92-1.63,7.7-2.33,10.61.58,3.26,3.27,2.8,9.21-1.05,11.89-4.9,3.5-11.08,5.36-17.61,5.36-15.63,0-29.85-10.96-29.85-28.1v-.35c0-17.14,14.23-28.1,29.85-28.1,6.53,0,12.71,1.87,17.61,5.36,3.85,2.68,4.31,8.63,1.05,11.89-2.92,2.92-7.7,2.22-10.61.58-2.33-1.28-5.13-2.1-8.05-2.1-7,0-13.29,4.78-13.29,12.36v.35c0,7.58,6.3,12.36,13.29,12.36Z" fill="#ffffff"/><path d="m730.57,512.88c0-7.11-5.13-10.73-10.03-10.73s-10.73,2.68-10.73,10.96v22.16c0,4.08-3.73,7.23-8.16,7.23s-8.05-3.27-8.16-7.23v-70.78c.12-3.96,3.85-7.23,8.16-7.23s8.16,3.15,8.16,7.23v31.48c2.21-6.76,10.03-9.56,15.16-9.56,14.34,0,21.92,9.45,21.92,25.89v22.97c0,4.08-3.73,7.23-8.16,7.23s-8.05-3.27-8.16-7.23v-22.39Z" fill="#ffffff"/><path d="m757.5,514.51c0-17.14,12.71-28.1,28.57-28.1s28.69,10.96,28.69,28.1-12.83,28.45-28.69,28.45-28.57-11.31-28.57-28.45Zm40.93,0c0-7.35-5.6-12.36-12.36-12.36s-12.24,5.01-12.24,12.36,5.6,12.71,12.24,12.71,12.36-5.25,12.36-12.71Z" fill="#ffffff"/><path d="m823.15,514.51c0-17.14,12.71-28.1,28.57-28.1s28.69,10.96,28.69,28.1-12.83,28.45-28.69,28.45-28.57-11.31-28.57-28.45Zm40.93,0c0-7.35-5.6-12.36-12.36-12.36s-12.24,5.01-12.24,12.36,5.6,12.71,12.24,12.71,12.36-5.25,12.36-12.71Z" fill="#ffffff"/><path d="m908.04,535.27c0,4.08-3.73,7.23-8.16,7.23s-8.05-3.27-8.16-7.23v-70.78c.12-3.96,3.85-7.23,8.16-7.23s8.16,3.15,8.16,7.23v70.78Z" fill="#ffffff"/></g><path d="m252.48,110.87l-20.99-7.1c-8.28-2.66-11.83-5.32-11.83-9.76,0-5.32,6.21-8.28,15.08-8.28,5.32,0,10.64,1.77,16.56,6.21,8.57,6.5,17.15,8.57,26.31,3.25,6.21-3.55,8.57-12.12,3.55-20.99-9.46-16.56-29.86-22.76-49.67-22.76-28.97,0-53.51,18.92-53.51,39.32,0,12.71-.3,32.23,41.09,46.12l15.67,5.62c10.05,3.25,13.6,5.32,13.6,11.23,0,7.1-8.57,8.57-17.74,8.57-9.76,0-18.63-4.14-26.02-12.12-4.44-5.32-13.01-9.16-22.17-5.03-6.8,2.96-10.35,12.12-7.39,20.7,7.09,20.4,33.11,29.56,55.28,29.56,28.97,0,59.72-13.9,59.72-43.16,0-8.87-4.14-30.45-37.55-41.39Z" fill="#ffffff"/><path d="m329.35,175.61c.3,10.05,9.76,18.33,20.7,18.33s20.7-7.98,20.7-18.33v-88.69h15.67c8.28-.3,14.78-7.69,14.78-16.26s-6.5-16.26-14.78-16.26h-15.67V18.33c0-10.35-9.46-18.33-20.7-18.33s-20.4,8.28-20.7,18.33v36.07h-11.23c-8.28,0-14.78,7.39-14.78,16.26s6.5,15.96,14.78,16.26h11.23v88.69Z" fill="#ffffff"/><path d="m532.17,182.71c10.05-5.91,13.01-18.63,5.32-27.49-5.91-6.8-16.56-8.57-26.02-2.07-8.57,5.91-15.67,6.5-23.95,6.5-14.49,0-31.93-6.8-34-22.76h88.99c6.5,0,12.71-5.32,12.71-12.71,0-43.46-31.34-72.43-70.66-72.43s-72.14,27.79-72.14,71.25,32.52,72.14,72.14,72.14c16.26,0,33.7-3.25,47.6-12.42Zm-47.3-96.67c15.37,0,26.9,8.28,28.97,25.13h-59.72c3.55-17.44,15.37-25.13,30.75-25.13Z" fill="#ffffff"/><path d="m622.04,175.61V18.33c0-10.35-9.46-18.33-20.7-18.33s-20.4,8.28-20.7,18.33v157.28c.3,10.05,9.76,18.33,20.7,18.33s20.7-7.98,20.7-18.33Z" fill="#ffffff"/><path d="m788.78,175.61v-104.36c-.3-10.05-9.76-18.33-20.7-18.33s-20.7,7.98-20.7,18.33v56.17c0,20.99-10.94,27.79-25.42,27.79-17.15,0-23.95-8.87-23.95-27.2v-56.76c-.3-10.05-9.76-18.33-20.7-18.33s-20.69,7.98-20.69,18.33v69.18c0,39.32,19.81,54.69,50.85,54.69,16.26,0,32.52-8.87,39.91-22.76v3.25c0,10.35,9.46,18.33,20.7,18.33s20.4-8.28,20.7-18.33Z" fill="#ffffff"/><path d="m892.85,54.4h-15.67V18.33c0-10.35-9.46-18.33-20.7-18.33s-20.4,8.28-20.7,18.33v36.07h-11.23c-8.28,0-14.78,7.39-14.78,16.26s6.5,15.96,14.78,16.26h11.23v88.69c.3,10.05,9.76,18.33,20.7,18.33s20.7-7.98,20.7-18.33v-88.69h15.67c8.28-.3,14.78-7.69,14.78-16.26s-6.5-16.26-14.78-16.26Z" fill="#ffffff"/><path d="m991.01,195.12c16.26,0,33.7-3.25,47.6-12.42,10.05-5.91,13.01-18.63,5.32-27.49-5.91-6.8-16.56-8.57-26.02-2.07-8.57,5.91-15.67,6.5-23.95,6.5-14.49,0-31.93-6.8-34-22.76h88.99c6.5,0,12.71-5.32,12.71-12.71,0-43.46-31.34-72.43-70.66-72.43s-72.14,27.79-72.14,71.25,32.52,72.14,72.14,72.14Zm.3-109.09c15.37,0,26.9,8.28,28.97,25.13h-59.72c3.55-17.44,15.37-25.13,30.75-25.13Z" fill="#ffffff"/><path d="m75.68,309.44c7.39,0,14.49,2.07,20.4,5.32,7.39,4.14,19.51,5.91,26.9-1.48,8.28-8.28,7.1-23.35-2.66-30.15-12.42-8.87-28.09-13.6-44.64-13.6-39.62,0-75.68,27.79-75.68,71.25v.89c0,43.46,36.07,71.25,75.68,71.25,16.56,0,32.22-4.73,44.64-13.6,9.76-6.8,10.94-21.88,2.66-30.15-7.39-7.39-19.51-5.62-26.9-1.48-5.91,3.25-13.01,5.32-20.4,5.32-17.74,0-33.7-12.12-33.7-31.34v-.89c0-19.22,15.96-31.34,33.7-31.34Z" fill="#ffffff"/><path d="m265.79,270.71c-11.23,0-20.7,7.98-20.7,18.33v56.17c0,20.99-10.94,27.79-25.42,27.79-17.15,0-23.95-8.87-23.95-27.2v-56.76c-.3-10.05-9.76-18.33-20.7-18.33s-20.69,7.98-20.69,18.33v69.18c0,39.32,19.81,54.69,50.85,54.69,16.26,0,32.52-8.87,39.91-22.76v3.25c0,10.35,9.46,18.33,20.7,18.33s20.4-8.28,20.7-18.33v-104.36c-.3-10.05-9.76-18.33-20.7-18.33Z" fill="#ffffff"/><path d="m399.12,269.53c-14.19,0-28.68,8.87-36.36,34.59v-15.08c0-10.35-9.46-18.33-20.7-18.33s-20.4,8.28-20.7,18.33v104.36c.3,10.05,9.76,18.33,20.7,18.33s20.7-7.98,20.7-18.33v-34c.59-34.59,8.28-52.33,31.34-52.33,2.66,0,7.1.3,10.05.3,9.17,0,18.92-4.73,20.4-15.08,2.66-19.51-11.83-22.76-25.43-22.76Z" fill="#ffffff"/><path d="m509.4,309.44c7.39,0,14.49,2.07,20.4,5.32,7.39,4.14,19.51,5.91,26.9-1.48,8.28-8.28,7.1-23.35-2.66-30.15-12.42-8.87-28.09-13.6-44.64-13.6-39.62,0-75.68,27.79-75.68,71.25v.89c0,43.46,36.07,71.25,75.68,71.25,16.56,0,32.22-4.73,44.64-13.6,9.76-6.8,10.94-21.88,2.66-30.15-7.39-7.39-19.51-5.62-26.9-1.48-5.91,3.25-13.01,5.32-20.4,5.32-17.74,0-33.7-12.12-33.7-31.34v-.89c0-19.22,15.96-31.34,33.7-31.34Z" fill="#ffffff"/><path d="m699.5,270.71c-11.23,0-20.7,7.98-20.7,18.33v56.17c0,20.99-10.94,27.79-25.42,27.79-17.15,0-23.95-8.87-23.95-27.2v-56.76c-.3-10.05-9.76-18.33-20.7-18.33s-20.7,7.98-20.7,18.33v69.18c0,39.32,19.81,54.69,50.85,54.69,16.26,0,32.52-8.87,39.91-22.76v3.25c0,10.35,9.46,18.33,20.7,18.33s20.4-8.28,20.7-18.33v-104.36c-.3-10.05-9.76-18.33-20.7-18.33Z" fill="#ffffff"/><path d="m999.29,269.53c-39.61,0-72.14,27.79-72.14,71.25s32.52,72.14,72.14,72.14c16.26,0,33.7-3.25,47.6-12.42,10.05-5.91,13.01-18.63,5.32-27.49-5.91-6.8-16.56-8.57-26.02-2.07-8.57,5.91-15.67,6.5-23.95,6.5-14.49,0-31.93-6.8-34-22.76h88.99c6.5,0,12.71-5.32,12.71-12.71,0-43.46-31.34-72.43-70.66-72.43Zm-30.45,59.42c3.55-17.44,15.37-25.13,30.75-25.13s26.9,8.28,28.97,25.13h-59.72Z" fill="#ffffff"/><path d="m1205.35,270.71c-11.23,0-20.7,7.98-20.7,18.33v56.17c0,20.99-10.94,27.79-25.42,27.79-17.15,0-23.95-8.87-23.95-27.2v-56.76c-.3-10.05-9.76-18.33-20.7-18.33s-20.69,7.98-20.69,18.33v69.18c0,39.32,19.81,54.69,50.85,54.69,16.26,0,32.52-8.87,39.91-22.76v3.25c0,10.35,9.46,18.33,20.7,18.33s20.4-8.28,20.7-18.33v-104.36c-.3-10.05-9.76-18.33-20.7-18.33Z" fill="#ffffff"/><path d="m838.46,269.53c-8.87,0-29.57,3.84-41.39,22.17v-53.95c-.3-10.05-9.76-18.33-20.7-18.33s-20.7,7.98-20.7,18.33v155.66c0,10.35,9.46,18.33,20.7,18.33s20.4-8.28,20.7-18.33v-2.66c8.87,14.49,25.72,22.17,41.39,22.17,35.18,0,67.11-26.02,67.11-71.84s-31.93-71.55-67.11-71.55Zm34.49,63.25l-13.32,12.99c-1.13,1.1-1.64,2.68-1.37,4.23l3.14,18.34c.67,3.9-3.43,6.88-6.93,5.04l-16.47-8.66c-1.39-.73-3.05-.73-4.45,0l-16.47,8.66c-3.51,1.84-7.6-1.13-6.93-5.04l3.14-18.34c.27-1.55-.25-3.13-1.37-4.23l-13.32-12.99c-2.84-2.76-1.27-7.58,2.65-8.15l18.41-2.68c1.56-.23,2.9-1.2,3.6-2.61l8.23-16.68c1.75-3.55,6.82-3.55,8.57,0l8.23,16.68c.7,1.41,2.04,2.39,3.6,2.61l18.41,2.68c3.92.57,5.48,5.39,2.65,8.15Z" fill="#ffffff"/></g></svg>